<?xml version="1.0" encoding="UTF-8" standalone="no"?>
<!DOCTYPE svg PUBLIC "-//W3C//DTD SVG 1.1//EN" "http://www.w3.org/Graphics/SVG/1.1/DTD/svg11.dtd">
<!-- Generated by graphviz version 2.40.1 (20161225.0304)
 -->
<!-- Title: G Pages: 1 -->
<svg width="907pt" height="876pt" viewBox="0.00 0.00 906.71 876.00" xmlns="http://www.w3.org/2000/svg" xmlns:xlink="http://www.w3.org/1999/xlink">
<g id="graph0" class="graph" transform="scale(1 1) rotate(0) translate(36 840)">
<title>G</title>
<polygon fill="#ffffff" stroke="transparent" points="-36,36 -36,-840 870.7123,-840 870.7123,36 -36,36"/>
<!-- MAVLinkBackend -->
<g id="node1" class="node">
<title>MAVLinkBackend</title>
<polygon fill="#add8e6" stroke="transparent" points="253.8953,-778 253.8953,-804 622.8953,-804 622.8953,-778 253.8953,-778"/>
<polygon fill="none" stroke="#000000" points="253.8953,-778 253.8953,-804 622.8953,-804 622.8953,-778 253.8953,-778"/>
<text text-anchor="start" x="384.3546" y="-787.4" font-family="Times,serif" font-weight="bold" font-size="14.00" fill="#000000">MAVLinkBackend</text>
<polygon fill="none" stroke="#000000" points="253.8953,-752 253.8953,-778 622.8953,-778 622.8953,-752 253.8953,-752"/>
<text text-anchor="start" x="382.9854" y="-760.4" font-family="Times,serif" font-size="14.00" fill="#000000">vehicle: MultiRotor</text>
<polygon fill="none" stroke="#000000" points="253.8953,-726 253.8953,-752 622.8953,-752 622.8953,-726 253.8953,-726"/>
<text text-anchor="start" x="333.8062" y="-734.4" font-family="Times,serif" font-size="14.00" fill="#000000">load_vehicle(): initializes MultiRotor</text>
<polygon fill="none" stroke="#000000" points="253.8953,-700 253.8953,-726 622.8953,-726 622.8953,-700 253.8953,-700"/>
<text text-anchor="start" x="345.485" y="-708.4" font-family="Times,serif" font-size="14.00" fill="#000000">connect(): establishes connection</text>
<polygon fill="none" stroke="#000000" points="253.8953,-674 253.8953,-700 622.8953,-700 622.8953,-674 253.8953,-674"/>
<text text-anchor="start" x="258.5835" y="-682.4" font-family="Times,serif" font-size="14.00" fill="#000000">send_mavlink_message(mav_message): sends mavlink message</text>
<polygon fill="none" stroke="#000000" points="253.8953,-648 253.8953,-674 622.8953,-674 622.8953,-648 253.8953,-648"/>
<text text-anchor="start" x="350.5376" y="-656.4" font-family="Times,serif" font-size="14.00" fill="#000000">disconnect(): closes connection</text>
<polygon fill="none" stroke="#000000" points="253.8953,-622 253.8953,-648 622.8953,-648 622.8953,-622 253.8953,-622"/>
<text text-anchor="start" x="353.4573" y="-630.4" font-family="Times,serif" font-size="14.00" fill="#000000">update(): updates vehicle state</text>
<polygon fill="none" stroke="#000000" points="253.8953,-596 253.8953,-622 622.8953,-622 622.8953,-596 253.8953,-596"/>
<text text-anchor="start" x="299.0309" y="-604.4" font-family="Times,serif" font-size="14.00" fill="#000000">update_sensor(sensor, value): updates sensor data</text>
<polygon fill="none" stroke="#000000" points="253.8953,-570 253.8953,-596 622.8953,-596 622.8953,-570 253.8953,-570"/>
<text text-anchor="start" x="324.3023" y="-578.4" font-family="Times,serif" font-size="14.00" fill="#000000">update_state(state): updates vehicle state</text>
</g>
<!-- MultiRotor -->
<g id="node2" class="node">
<title>MultiRotor</title>
<polygon fill="#add8e6" stroke="transparent" points="258.8953,-376 258.8953,-402 617.8953,-402 617.8953,-376 258.8953,-376"/>
<polygon fill="none" stroke="#000000" points="258.8953,-376 258.8953,-402 617.8953,-402 617.8953,-376 258.8953,-376"/>
<text text-anchor="start" x="406.8932" y="-385.4" font-family="Times,serif" font-weight="bold" font-size="14.00" fill="#000000">MultiRotor</text>
<polygon fill="none" stroke="#000000" points="258.8953,-350 258.8953,-376 617.8953,-376 617.8953,-350 258.8953,-350"/>
<text text-anchor="start" x="357.3374" y="-358.4" font-family="Times,serif" font-size="14.00" fill="#000000">backend: MAVLinkBackend</text>
<polygon fill="none" stroke="#000000" points="258.8953,-324 258.8953,-350 617.8953,-350 617.8953,-324 258.8953,-324"/>
<text text-anchor="start" x="336.7357" y="-332.4" font-family="Times,serif" font-size="14.00" fill="#000000">thrust_curve: QuadraticThrustCurve</text>
<polygon fill="none" stroke="#000000" points="258.8953,-298 258.8953,-324 617.8953,-324 617.8953,-298 258.8953,-298"/>
<text text-anchor="start" x="263.4436" y="-306.4" font-family="Times,serif" font-size="14.00" fill="#000000">set_controls(controls, dt): sets control values and updates state</text>
<polygon fill="none" stroke="#000000" points="258.8953,-272 258.8953,-298 617.8953,-298 617.8953,-272 258.8953,-272"/>
<text text-anchor="start" x="312.2581" y="-280.4" font-family="Times,serif" font-size="14.00" fill="#000000">get_state(): returns the vehicle's current state</text>
</g>
<!-- MAVLinkBackend&#45;&gt;MultiRotor -->
<g id="edge1" class="edge">
<title>MAVLinkBackend-&gt;MultiRotor</title>
<path fill="none" stroke="#c0c0c0" d="M253.1526,-660.4358C109.1451,-631.4907 -55.0517,-575.1679 18.3383,-474 46.9937,-434.4986 151.0017,-400.3893 248.2833,-376.0855"/>
<polygon fill="#c0c0c0" stroke="#c0c0c0" points="249.4103,-379.4124 258.2791,-373.6163 247.7315,-372.6166 249.4103,-379.4124"/>
<text text-anchor="middle" x="79.1738" y="-489" font-family="Helvetica,sans-Serif" font-size="10.00" fill="#0000ff">load_vehicle()</text>
<text text-anchor="middle" x="79.1738" y="-477" font-family="Helvetica,sans-Serif" font-size="10.00" fill="#0000ff">calls MultiRotor constructor</text>
</g>
<!-- MAVLinkBackend&#45;&gt;MultiRotor -->
<g id="edge2" class="edge">
<title>MAVLinkBackend-&gt;MultiRotor</title>
<path fill="none" stroke="#c0c0c0" d="M253.3414,-590.6334C214.7059,-557.3166 192.0612,-517.3522 216.2313,-474 230.8284,-447.8181 252.7188,-426.0116 277.1493,-408.0694"/>
<polygon fill="#c0c0c0" stroke="#c0c0c0" points="279.3909,-410.7706 285.525,-402.1321 275.3427,-405.0599 279.3909,-410.7706"/>
<text text-anchor="middle" x="282.7273" y="-489" font-family="Helvetica,sans-Serif" font-size="10.00" fill="#0000ff">send_mavlink_message()</text>
<text text-anchor="middle" x="282.7273" y="-477" font-family="Helvetica,sans-Serif" font-size="10.00" fill="#0000ff">calls MultiRotor.set_controls()</text>
</g>
<!-- MultiRotor&#45;&gt;MAVLinkBackend -->
<g id="edge3" class="edge">
<title>MultiRotor-&gt;MAVLinkBackend</title>
<path fill="none" stroke="#c0c0c0" d="M430.6908,-402.0741C428.5011,-424.7996 426.3902,-450.4981 425.3133,-474 424.0447,-501.6842 424.5921,-531.3784 426.0024,-559.5435"/>
<polygon fill="#c0c0c0" stroke="#c0c0c0" points="422.5245,-560.0479 426.5593,-569.8444 429.5143,-559.67 422.5245,-560.0479"/>
<text text-anchor="middle" x="476.1863" y="-489" font-family="Helvetica,sans-Serif" font-size="10.00" fill="#0000ff">set_controls()</text>
<text text-anchor="middle" x="476.1863" y="-477" font-family="Helvetica,sans-Serif" font-size="10.00" fill="#0000ff">calls backend.update()</text>
</g>
<!-- MultiRotor&#45;&gt;MAVLinkBackend -->
<g id="edge4" class="edge">
<title>MultiRotor-&gt;MAVLinkBackend</title>
<path fill="none" stroke="#c0c0c0" d="M499.5462,-402.1022C515.8961,-423.3988 531.3604,-448.2449 539.8953,-474 549.3968,-502.6725 544.9823,-532.4824 533.8742,-560.4005"/>
<polygon fill="#c0c0c0" stroke="#c0c0c0" points="530.5723,-559.2205 529.861,-569.7915 537.0092,-561.9714 530.5723,-559.2205"/>
<text text-anchor="middle" x="611.9688" y="-489" font-family="Helvetica,sans-Serif" font-size="10.00" fill="#0000ff">set_controls()</text>
<text text-anchor="middle" x="611.9688" y="-477" font-family="Helvetica,sans-Serif" font-size="10.00" fill="#0000ff">calls backend.update_sensor()</text>
</g>
<!-- MultiRotor&#45;&gt;MAVLinkBackend -->
<g id="edge5" class="edge">
<title>MultiRotor-&gt;MAVLinkBackend</title>
<path fill="none" stroke="#c0c0c0" d="M617.6899,-398.4413C649.6449,-417.6077 678.7843,-442.3283 697.8953,-474 730.3646,-527.8099 689.4928,-574.0438 631.2444,-609.5519"/>
<polygon fill="#c0c0c0" stroke="#c0c0c0" points="629.3515,-606.6052 622.5309,-614.7127 632.9187,-612.6281 629.3515,-606.6052"/>
<text text-anchor="middle" x="770.8038" y="-489" font-family="Helvetica,sans-Serif" font-size="10.00" fill="#0000ff">set_controls()</text>
<text text-anchor="middle" x="770.8038" y="-477" font-family="Helvetica,sans-Serif" font-size="10.00" fill="#0000ff">calls backend.update_state()</text>
</g>
<!-- QuadraticThrustCurve -->
<g id="node3" class="node">
<title>QuadraticThrustCurve</title>
<polygon fill="#add8e6" stroke="transparent" points="253.8953,-78 253.8953,-104 622.8953,-104 622.8953,-78 253.8953,-78"/>
<polygon fill="none" stroke="#000000" points="253.8953,-78 253.8953,-104 622.8953,-104 622.8953,-78 253.8953,-78"/>
<text text-anchor="start" x="375.4191" y="-87.4" font-family="Times,serif" font-weight="bold" font-size="14.00" fill="#000000">QuadraticThrustCurve</text>
<polygon fill="none" stroke="#000000" points="253.8953,-52 253.8953,-78 622.8953,-78 622.8953,-52 253.8953,-52"/>
<text text-anchor="start" x="258.8145" y="-60.4" font-family="Times,serif" font-size="14.00" fill="#000000">set_input_reference(input_reference): sets target rotor velocities</text>
<polygon fill="none" stroke="#000000" points="253.8953,-26 253.8953,-52 622.8953,-52 622.8953,-26 253.8953,-26"/>
<text text-anchor="start" x="294.3633" y="-34.4" font-family="Times,serif" font-size="14.00" fill="#000000">update(state, dt): computes rotor forces and torques</text>
<polygon fill="none" stroke="#000000" points="253.8953,0 253.8953,-26 622.8953,-26 622.8953,0 253.8953,0"/>
<text text-anchor="start" x="297.0709" y="-8.4" font-family="Times,serif" font-size="14.00" fill="#000000">force, velocity, rolling_moment, rot_dir properties</text>
</g>
<!-- MultiRotor&#45;&gt;QuadraticThrustCurve -->
<g id="edge6" class="edge">
<title>MultiRotor-&gt;QuadraticThrustCurve</title>
<path fill="none" stroke="#c0c0c0" d="M314.4263,-271.9675C281.333,-245.3997 259.0974,-212.3481 276.9763,-176 289.6482,-150.2376 310.5318,-128.3214 333.1237,-110.4101"/>
<polygon fill="#c0c0c0" stroke="#c0c0c0" points="335.3654,-113.1018 341.1752,-104.2419 331.1084,-107.5449 335.3654,-113.1018"/>
<text text-anchor="middle" x="387.3548" y="-191" font-family="Helvetica,sans-Serif" font-size="10.00" fill="#0000ff">set_controls()</text>
<text text-anchor="middle" x="387.3548" y="-179" font-family="Helvetica,sans-Serif" font-size="10.00" fill="#0000ff">calls QuadraticThrustCurve.set_input_reference()</text>
</g>
<!-- MultiRotor&#45;&gt;QuadraticThrustCurve -->
<g id="edge7" class="edge">
<title>MultiRotor-&gt;QuadraticThrustCurve</title>
<path fill="none" stroke="#c0c0c0" d="M489.7574,-271.7549C506.4807,-243.1336 518.6925,-208.6704 509.8953,-176 504.0016,-154.1127 493.1918,-132.1081 481.7086,-112.8385"/>
<polygon fill="#c0c0c0" stroke="#c0c0c0" points="484.6136,-110.8805 476.4004,-104.1876 478.6472,-114.5415 484.6136,-110.8805"/>
<text text-anchor="middle" x="592.4603" y="-191" font-family="Helvetica,sans-Serif" font-size="10.00" fill="#0000ff">set_controls()</text>
<text text-anchor="middle" x="592.4603" y="-179" font-family="Helvetica,sans-Serif" font-size="10.00" fill="#0000ff">calls QuadraticThrustCurve.update()</text>
</g>
</g>
</svg>